<?xml version="1.0" standalone="no"?>
<!DOCTYPE svg PUBLIC "-//W3C//DTD SVG 20010904//EN"
 "http://www.w3.org/TR/2001/REC-SVG-20010904/DTD/svg10.dtd">
<svg version="1.0" xmlns="http://www.w3.org/2000/svg"
 width="700.000000pt" height="700.000000pt" viewBox="0 0 700.000000 700.000000"
 preserveAspectRatio="xMidYMid meet">
<metadata>
Created by potrace 1.11, written by Peter Selinger 2001-2013
</metadata>
<g transform="translate(0.000000,700.000000) scale(0.100000,-0.100000)"
fill="#000000" stroke="none">
<path d="M700 3625 l0 -1825 360 0 360 0 0 679 0 678 278 6 c387 7 616 42 825
126 329 131 514 385 567 776 14 103 14 377 0 480 -57 422 -263 678 -646 804
-256 84 -452 100 -1221 101 l-523 0 0 -1825z m1225 1199 c55 -5 174 -38 219
-61 51 -26 117 -96 146 -153 43 -87 55 -151 55 -305 0 -210 -36 -319 -135
-408 -102 -92 -207 -115 -540 -116 l-250 -2 0 532 0 532 228 -7 c125 -4 250
-9 277 -12z"/>
<path d="M4520 4185 l0 -525 -525 0 -525 0 0 -290 0 -290 525 0 525 0 2 -527
3 -528 290 0 290 0 3 521 2 521 368 6 c202 4 438 7 525 7 l157 0 0 290 0 290
-157 0 c-87 0 -323 3 -525 7 l-368 6 0 519 0 518 -295 0 -295 0 0 -525z"/>
</g>
</svg>
